<?xml version="1.0" encoding="UTF-8" standalone="no"?>
<svg
   width="512"
   height="512"
   viewBox="0 0 512 512"
   version="1.1"
   xmlns="http://www.w3.org/2000/svg"
   xmlns:svg="http://www.w3.org/2000/svg">
  <g transform="translate(56,56) scale(0.8)">
    <!-- Main Leaf -->
    <path
       style="fill:#2e9c39;fill-opacity:1;stroke:none;stroke-width:1px"
       d="M 250,100 C 180,120 150,200 150,250 C 150,350 250,400 250,400 C 250,400 350,350 350,250 C 350,150 320,120 250,100 Z" />

    <!-- Leaf Vein -->
    <path
       style="fill:#1a5c22;fill-opacity:1;stroke:none;stroke-width:1px"
       d="M 250,150 C 220,170 200,220 200,250 C 200,320 250,350 250,350 C 250,350 300,320 300,250 C 300,180 280,170 250,150 Z" />

    <!-- Camera Lens -->
    <circle
       style="fill:#ffffff;fill-opacity:1;stroke:#ffffff;stroke-width:8"
       cx="250"
       cy="250"
       r="80" />

    <circle
       style="fill:#1a5c22;fill-opacity:1;stroke:none"
       cx="250"
       cy="250"
       r="75" />

    <circle
       style="fill:#2e9c39;fill-opacity:1;stroke:none"
       cx="250"
       cy="250"
       r="60" />

    <circle
       style="fill:#1a5c22;fill-opacity:1;stroke:none"
       cx="250"
       cy="250"
       r="45" />

    <!-- Lens Reflections -->
    <circle
       style="fill:#ffffff;fill-opacity:1;stroke:none"
       cx="250"
       cy="230"
       r="10" />

    <circle
       style="fill:#ffffff;fill-opacity:1;stroke:none"
       cx="250"
       cy="270"
       r="10" />

    <!-- Stem -->
    <path
       style="fill:#2e9c39;fill-opacity:1;stroke:none;stroke-width:1px"
       d="M 180,350 C 180,350 150,380 150,400 C 150,420 170,450 190,450 C 210,450 200,420 200,400 C 200,380 180,350 180,350 Z" />
  </g>
</svg>
